name C:\Users\tom_v\MusculoskeletalSpecialization\ResultsSprinting\Case_6\motion.mot
datacolumns 32
datarows 5
range 0.41626358 0.43846431
endheader 
time	pelvis_tilt	pelvis_list	pelvis_rotation	pelvis_tx	pelvis_ty	pelvis_tz	hip_flexion_r	hip_adduction_r	hip_rotation_r	knee_angle_r	ankle_angle_r	subtalar_angle_r	mtp_angle_r	hip_flexion_l	hip_adduction_l	hip_rotation_l	knee_angle_l	ankle_angle_l	subtalar_angle_l	mtp_angle_l	lumbar_extension	lumbar_bending	lumbar_rotation	arm_flex_r	arm_add_r	arm_rot_r	elbow_flex_r	arm_flex_l	arm_add_l	arm_rot_l	elbow_flex_l	
          0.41626358	        -15.06126298	         -2.53477420	          2.40814389	          1.38418373	          0.91994642	         -0.00061222	         41.77440532	          5.23969082	         -5.19842347	        -61.33584572	          3.78316234	         -5.87025860	          1.43995771	         11.54009394	          1.56453634	          3.80963369	        -22.71445472	         -0.38754092	         -8.22698906	         34.51274631	         -5.85417338	          1.52952264	         -7.38706787	         -2.60836974	         -4.02438155	         -0.00143761	         71.59184908	          4.19455838	         -1.62242272	        -11.07114973	         46.79184697	
          0.42181376	        -15.06642763	         -2.68482966	          2.54144463	          1.40314067	          0.92272559	         -0.00091728	         42.44474993	          5.44972319	         -5.29944714	        -60.13665724	          3.85754587	         -5.95775176	          1.34111217	         10.29108021	          1.15371771	          3.43509044	        -22.22400458	         -2.92004360	         -7.73313859	         36.21788774	         -5.75970462	          1.89378073	         -7.62508722	         -2.89550202	         -4.00614095	         -0.16155983	         72.29713726	          4.13118103	         -1.67491833	        -10.84233399	         46.54159195	
          0.42736394	        -15.07292671	         -2.79842470	          2.66307788	          1.42204856	          0.92540302	         -0.00122593	         43.01800037	          5.59786914	         -5.35987879	        -58.76103749	          3.92589847	         -6.04711836	          1.24945077	          9.21754072	          0.79223713	          3.10161393	        -22.00235425	         -5.28673601	         -7.17315024	         37.33145247	         -5.67204529	          2.21484277	         -7.82775623	         -3.08061167	         -3.97589849	         -0.29923217	         72.70005807	          4.17994180	         -1.72646806	        -10.57646273	         46.02874811	
          0.43291412	        -15.08028769	         -2.87735046	          2.77262074	          1.44089832	          0.92795927	         -0.00153793	         43.49182965	          5.68947709	         -5.38153771	        -57.22091495	          3.99190201	         -6.13912870	          1.16421937	          8.32576537	          0.48243291	          2.80133475	        -22.05265844	         -7.51714169	         -6.61373046	         37.88843245	         -5.59386102	          2.49451593	         -7.99434900	         -3.16211673	         -3.93532161	         -0.41325263	         72.80180984	          4.34102562	         -1.77468411	        -10.27689563	         45.25789944	
          0.43846431	        -15.08862008	         -2.92580333	          2.86976953	          1.45968928	          0.93037230	         -0.00185270	         43.86409110	          5.73361821	         -5.36802074	        -55.52571525	          4.05686568	         -6.23390970	          1.08545013	          7.61002942	          0.22323321	          2.52627260	        -22.36374939	         -9.56991981	         -6.09162842	         37.82799373	         -5.52536223	          2.73752110	         -8.12510215	         -3.13952306	         -3.88629980	         -0.50212359	         72.60438751	          4.61141663	         -1.81670100	         -9.94723683	         44.23618868	
